<svg width="342" height="135" viewBox="0 0 342 135" fill="none" xmlns="http://www.w3.org/2000/svg">
<path d="M165.008 21.768V93H182.096V21.768H165.008ZM210.437 40.392C201.893 40.392 194.405 42.408 186.245 46.056L190.949 57.576C196.517 54.888 202.181 53.448 206.501 53.448C213.029 53.448 216.389 56.328 216.389 61.224V61.8H202.853C189.989 61.992 182.981 67.656 182.981 77.544C182.981 87.048 189.605 93.768 200.741 93.768C207.749 93.768 213.029 91.464 216.389 87.144V93H233.189V59.208C233.093 47.304 224.741 40.392 210.437 40.392ZM206.021 82.152C201.605 82.152 199.013 79.848 199.013 76.296C199.013 72.648 201.413 70.92 206.213 70.92H216.389V75.432C215.333 79.368 211.109 82.152 206.021 82.152ZM236.509 21.768V93H253.597V21.768H236.509ZM281.938 40.392C273.394 40.392 265.906 42.408 257.746 46.056L262.45 57.576C268.018 54.888 273.682 53.448 278.002 53.448C284.53 53.448 287.89 56.328 287.89 61.224V61.8H274.354C261.49 61.992 254.482 67.656 254.482 77.544C254.482 87.048 261.106 93.768 272.242 93.768C279.25 93.768 284.53 91.464 287.89 87.144V93H304.69V59.208C304.594 47.304 296.242 40.392 281.938 40.392ZM277.522 82.152C273.106 82.152 270.514 79.848 270.514 76.296C270.514 72.648 272.914 70.92 277.714 70.92H287.89V75.432C286.834 79.368 282.61 82.152 277.522 82.152Z" fill="#6ABFB0"/>
<path d="M41.28 40.392C33.696 40.392 27.744 43.56 24.096 49.512V21.768H7.008V93H24.096V67.368C24.096 60.552 27.936 55.752 34.272 55.656C39.744 55.656 43.104 59.304 43.104 65.16V93H60.192V60.264C60.192 48.072 52.704 40.392 41.28 40.392Z" fill="#6ABFB0"/>
<path d="M92.624 40.488C75.536 40.488 64.304 51.048 64.304 66.984C64.304 83.016 75.536 93.576 92.624 93.576C109.712 93.576 121.04 83.016 121.04 66.984C121.04 51.048 109.712 40.488 92.624 40.488ZM92.624 54.312C99.344 54.312 103.856 59.496 103.856 67.176C103.856 74.952 99.344 80.136 92.624 80.136C86 80.136 81.488 74.952 81.488 67.176C81.488 59.496 86 54.312 92.624 54.312Z" fill="#6ABFB0"/>
<path d="M132.624 40.488C115.536 40.488 104.304 51.048 104.304 66.984C104.304 83.016 115.536 93.576 132.624 93.576C149.712 93.576 161.04 83.016 161.04 66.984C161.04 51.048 149.712 40.488 132.624 40.488ZM132.624 54.312C139.344 54.312 143.856 59.496 143.856 67.176C143.856 74.952 139.344 80.136 132.624 80.136C126 80.136 121.488 74.952 121.488 67.176C121.488 59.496 126 54.312 132.624 54.312Z" fill="#6ABFB0"/>
<path d="M6 99H306L6 108V103.5V99Z" fill="#3F746B"/>
<path d="M6 104.247L308.139 99L6.00003 114.999L6 104.247Z" fill="#589A8F"/>
<path d="M5.9992 114.303L306.939 99L5.9992 135L5.9992 114.303Z" fill="#6ABFB0"/>
</svg>
